<?xml version="1.0" standalone="no"?>
<svg xmlns:xlink="http://www.w3.org/1999/xlink" id="wave" style="transform:rotate(180deg); transition: 0.3s" viewBox="0 0 1440 420" version="1.1" xmlns="http://www.w3.org/2000/svg"><defs><linearGradient id="sw-gradient-0" x1="0" x2="0" y1="1" y2="0"><stop stop-color="rgba(186.69, 70.396, 216.615, 1)" offset="0%"/><stop stop-color="rgba(255, 123.054, 59.836, 1)" offset="100%"/></linearGradient></defs><path style="transform:translate(0, 0px); opacity:1" fill="url(#sw-gradient-0)" d="M0,42L40,63C80,84,160,126,240,147C320,168,400,168,480,154C560,140,640,112,720,105C800,98,880,112,960,140C1040,168,1120,210,1200,203C1280,196,1360,140,1440,105C1520,70,1600,56,1680,105C1760,154,1840,266,1920,280C2000,294,2080,210,2160,210C2240,210,2320,294,2400,315C2480,336,2560,294,2640,273C2720,252,2800,252,2880,273C2960,294,3040,336,3120,336C3200,336,3280,294,3360,231C3440,168,3520,84,3600,98C3680,112,3760,224,3840,231C3920,238,4000,140,4080,98C4160,56,4240,70,4320,126C4400,182,4480,280,4560,294C4640,308,4720,238,4800,224C4880,210,4960,252,5040,273C5120,294,5200,294,5280,259C5360,224,5440,154,5520,168C5600,182,5680,280,5720,329L5760,378L5760,420L5720,420C5680,420,5600,420,5520,420C5440,420,5360,420,5280,420C5200,420,5120,420,5040,420C4960,420,4880,420,4800,420C4720,420,4640,420,4560,420C4480,420,4400,420,4320,420C4240,420,4160,420,4080,420C4000,420,3920,420,3840,420C3760,420,3680,420,3600,420C3520,420,3440,420,3360,420C3280,420,3200,420,3120,420C3040,420,2960,420,2880,420C2800,420,2720,420,2640,420C2560,420,2480,420,2400,420C2320,420,2240,420,2160,420C2080,420,2000,420,1920,420C1840,420,1760,420,1680,420C1600,420,1520,420,1440,420C1360,420,1280,420,1200,420C1120,420,1040,420,960,420C880,420,800,420,720,420C640,420,560,420,480,420C400,420,320,420,240,420C160,420,80,420,40,420L0,420Z"/><defs><linearGradient id="sw-gradient-1" x1="0" x2="0" y1="1" y2="0"><stop stop-color="rgba(163.865, 70.172, 205.231, 1)" offset="0%"/><stop stop-color="rgba(239.383, 111.863, 50.765, 1)" offset="100%"/></linearGradient></defs><path style="transform:translate(0, 50px); opacity:0.9" fill="url(#sw-gradient-1)" d="M0,252L40,273C80,294,160,336,240,343C320,350,400,322,480,266C560,210,640,126,720,112C800,98,880,154,960,154C1040,154,1120,98,1200,105C1280,112,1360,182,1440,210C1520,238,1600,224,1680,238C1760,252,1840,294,1920,294C2000,294,2080,252,2160,245C2240,238,2320,266,2400,252C2480,238,2560,182,2640,182C2720,182,2800,238,2880,273C2960,308,3040,322,3120,322C3200,322,3280,308,3360,315C3440,322,3520,350,3600,315C3680,280,3760,182,3840,119C3920,56,4000,28,4080,70C4160,112,4240,224,4320,231C4400,238,4480,140,4560,105C4640,70,4720,98,4800,154C4880,210,4960,294,5040,294C5120,294,5200,210,5280,175C5360,140,5440,154,5520,154C5600,154,5680,140,5720,133L5760,126L5760,420L5720,420C5680,420,5600,420,5520,420C5440,420,5360,420,5280,420C5200,420,5120,420,5040,420C4960,420,4880,420,4800,420C4720,420,4640,420,4560,420C4480,420,4400,420,4320,420C4240,420,4160,420,4080,420C4000,420,3920,420,3840,420C3760,420,3680,420,3600,420C3520,420,3440,420,3360,420C3280,420,3200,420,3120,420C3040,420,2960,420,2880,420C2800,420,2720,420,2640,420C2560,420,2480,420,2400,420C2320,420,2240,420,2160,420C2080,420,2000,420,1920,420C1840,420,1760,420,1680,420C1600,420,1520,420,1440,420C1360,420,1280,420,1200,420C1120,420,1040,420,960,420C880,420,800,420,720,420C640,420,560,420,480,420C400,420,320,420,240,420C160,420,80,420,40,420L0,420Z"/><defs><linearGradient id="sw-gradient-2" x1="0" x2="0" y1="1" y2="0"><stop stop-color="rgba(243, 106, 62, 1)" offset="0%"/><stop stop-color="rgba(255, 179, 11, 1)" offset="100%"/></linearGradient></defs><path style="transform:translate(0, 100px); opacity:0.8" fill="url(#sw-gradient-2)" d="M0,252L40,224C80,196,160,140,240,154C320,168,400,252,480,266C560,280,640,224,720,231C800,238,880,308,960,280C1040,252,1120,126,1200,91C1280,56,1360,112,1440,147C1520,182,1600,196,1680,210C1760,224,1840,238,1920,259C2000,280,2080,308,2160,266C2240,224,2320,112,2400,105C2480,98,2560,196,2640,217C2720,238,2800,182,2880,161C2960,140,3040,154,3120,182C3200,210,3280,252,3360,245C3440,238,3520,182,3600,147C3680,112,3760,98,3840,98C3920,98,4000,112,4080,154C4160,196,4240,266,4320,245C4400,224,4480,112,4560,63C4640,14,4720,28,4800,70C4880,112,4960,182,5040,210C5120,238,5200,224,5280,210C5360,196,5440,182,5520,147C5600,112,5680,56,5720,28L5760,0L5760,420L5720,420C5680,420,5600,420,5520,420C5440,420,5360,420,5280,420C5200,420,5120,420,5040,420C4960,420,4880,420,4800,420C4720,420,4640,420,4560,420C4480,420,4400,420,4320,420C4240,420,4160,420,4080,420C4000,420,3920,420,3840,420C3760,420,3680,420,3600,420C3520,420,3440,420,3360,420C3280,420,3200,420,3120,420C3040,420,2960,420,2880,420C2800,420,2720,420,2640,420C2560,420,2480,420,2400,420C2320,420,2240,420,2160,420C2080,420,2000,420,1920,420C1840,420,1760,420,1680,420C1600,420,1520,420,1440,420C1360,420,1280,420,1200,420C1120,420,1040,420,960,420C880,420,800,420,720,420C640,420,560,420,480,420C400,420,320,420,240,420C160,420,80,420,40,420L0,420Z"/></svg>