<?xml version="1.0" standalone="no"?>
<svg xmlns:xlink="http://www.w3.org/1999/xlink" id="wave" style="transform:rotate(180deg); transition: 0.3s" viewBox="0 0 1440 490" version="1.1" xmlns="http://www.w3.org/2000/svg"><defs><linearGradient id="sw-gradient-0" x1="0" x2="0" y1="1" y2="0"><stop stop-color="rgba(62, 101.981, 243, 1)" offset="0%"/><stop stop-color="rgba(11.952, 49.321, 127.82, 1)" offset="100%"/></linearGradient></defs><path style="transform:translate(0, 0px); opacity:1" fill="url(#sw-gradient-0)" d="M0,294L34.3,277.7C68.6,261,137,229,206,204.2C274.3,180,343,163,411,196C480,229,549,310,617,343C685.7,376,754,359,823,310.3C891.4,261,960,180,1029,155.2C1097.1,131,1166,163,1234,212.3C1302.9,261,1371,327,1440,334.8C1508.6,343,1577,294,1646,245C1714.3,196,1783,147,1851,155.2C1920,163,1989,229,2057,277.7C2125.7,327,2194,359,2263,367.5C2331.4,376,2400,359,2469,302.2C2537.1,245,2606,147,2674,114.3C2742.9,82,2811,114,2880,147C2948.6,180,3017,212,3086,245C3154.3,278,3223,310,3291,277.7C3360,245,3429,147,3497,98C3565.7,49,3634,49,3703,98C3771.4,147,3840,245,3909,285.8C3977.1,327,4046,310,4114,294C4182.9,278,4251,261,4320,269.5C4388.6,278,4457,310,4526,269.5C4594.3,229,4663,114,4731,114.3C4800,114,4869,229,4903,285.8L4937.1,343L4937.1,490L4902.9,490C4868.6,490,4800,490,4731,490C4662.9,490,4594,490,4526,490C4457.1,490,4389,490,4320,490C4251.4,490,4183,490,4114,490C4045.7,490,3977,490,3909,490C3840,490,3771,490,3703,490C3634.3,490,3566,490,3497,490C3428.6,490,3360,490,3291,490C3222.9,490,3154,490,3086,490C3017.1,490,2949,490,2880,490C2811.4,490,2743,490,2674,490C2605.7,490,2537,490,2469,490C2400,490,2331,490,2263,490C2194.3,490,2126,490,2057,490C1988.6,490,1920,490,1851,490C1782.9,490,1714,490,1646,490C1577.1,490,1509,490,1440,490C1371.4,490,1303,490,1234,490C1165.7,490,1097,490,1029,490C960,490,891,490,823,490C754.3,490,686,490,617,490C548.6,490,480,490,411,490C342.9,490,274,490,206,490C137.1,490,69,490,34,490L0,490Z"/><defs><linearGradient id="sw-gradient-1" x1="0" x2="0" y1="1" y2="0"><stop stop-color="rgba(118.713, 118.713, 118.713, 1)" offset="0%"/><stop stop-color="rgba(22.685, 33.809, 66.347, 1)" offset="100%"/></linearGradient></defs><path style="transform:translate(0, 50px); opacity:0.9" fill="url(#sw-gradient-1)" d="M0,49L34.3,49C68.6,49,137,49,206,81.7C274.3,114,343,180,411,187.8C480,196,549,147,617,179.7C685.7,212,754,327,823,359.3C891.4,392,960,343,1029,285.8C1097.1,229,1166,163,1234,130.7C1302.9,98,1371,98,1440,98C1508.6,98,1577,98,1646,130.7C1714.3,163,1783,229,1851,277.7C1920,327,1989,359,2057,375.7C2125.7,392,2194,392,2263,343C2331.4,294,2400,196,2469,187.8C2537.1,180,2606,261,2674,318.5C2742.9,376,2811,408,2880,359.3C2948.6,310,3017,180,3086,171.5C3154.3,163,3223,278,3291,277.7C3360,278,3429,163,3497,155.2C3565.7,147,3634,245,3703,285.8C3771.4,327,3840,310,3909,326.7C3977.1,343,4046,392,4114,359.3C4182.9,327,4251,212,4320,187.8C4388.6,163,4457,229,4526,236.8C4594.3,245,4663,196,4731,220.5C4800,245,4869,343,4903,392L4937.1,441L4937.1,490L4902.9,490C4868.6,490,4800,490,4731,490C4662.9,490,4594,490,4526,490C4457.1,490,4389,490,4320,490C4251.4,490,4183,490,4114,490C4045.7,490,3977,490,3909,490C3840,490,3771,490,3703,490C3634.3,490,3566,490,3497,490C3428.6,490,3360,490,3291,490C3222.9,490,3154,490,3086,490C3017.1,490,2949,490,2880,490C2811.4,490,2743,490,2674,490C2605.7,490,2537,490,2469,490C2400,490,2331,490,2263,490C2194.3,490,2126,490,2057,490C1988.6,490,1920,490,1851,490C1782.9,490,1714,490,1646,490C1577.1,490,1509,490,1440,490C1371.4,490,1303,490,1234,490C1165.7,490,1097,490,1029,490C960,490,891,490,823,490C754.3,490,686,490,617,490C548.6,490,480,490,411,490C342.9,490,274,490,206,490C137.1,490,69,490,34,490L0,490Z"/><defs><linearGradient id="sw-gradient-2" x1="0" x2="0" y1="1" y2="0"><stop stop-color="rgba(255, 255, 255, 1)" offset="0%"/><stop stop-color="rgba(255, 255, 255, 1)" offset="100%"/></linearGradient></defs><path style="transform:translate(0, 100px); opacity:0.8" fill="url(#sw-gradient-2)" d="M0,392L34.3,359.3C68.6,327,137,261,206,253.2C274.3,245,343,294,411,334.8C480,376,549,408,617,375.7C685.7,343,754,245,823,245C891.4,245,960,343,1029,383.8C1097.1,425,1166,408,1234,343C1302.9,278,1371,163,1440,138.8C1508.6,114,1577,180,1646,204.2C1714.3,229,1783,212,1851,187.8C1920,163,1989,131,2057,122.5C2125.7,114,2194,131,2263,155.2C2331.4,180,2400,212,2469,212.3C2537.1,212,2606,180,2674,155.2C2742.9,131,2811,114,2880,89.8C2948.6,65,3017,33,3086,32.7C3154.3,33,3223,65,3291,138.8C3360,212,3429,327,3497,334.8C3565.7,343,3634,245,3703,204.2C3771.4,163,3840,180,3909,196C3977.1,212,4046,229,4114,196C4182.9,163,4251,82,4320,106.2C4388.6,131,4457,261,4526,310.3C4594.3,359,4663,327,4731,261.3C4800,196,4869,98,4903,49L4937.1,0L4937.1,490L4902.9,490C4868.6,490,4800,490,4731,490C4662.9,490,4594,490,4526,490C4457.1,490,4389,490,4320,490C4251.4,490,4183,490,4114,490C4045.7,490,3977,490,3909,490C3840,490,3771,490,3703,490C3634.3,490,3566,490,3497,490C3428.6,490,3360,490,3291,490C3222.9,490,3154,490,3086,490C3017.1,490,2949,490,2880,490C2811.4,490,2743,490,2674,490C2605.7,490,2537,490,2469,490C2400,490,2331,490,2263,490C2194.3,490,2126,490,2057,490C1988.6,490,1920,490,1851,490C1782.9,490,1714,490,1646,490C1577.1,490,1509,490,1440,490C1371.4,490,1303,490,1234,490C1165.7,490,1097,490,1029,490C960,490,891,490,823,490C754.3,490,686,490,617,490C548.6,490,480,490,411,490C342.9,490,274,490,206,490C137.1,490,69,490,34,490L0,490Z"/></svg>